<?xml version="1.0" encoding="iso-8859-1"?>
<!-- Generator: Adobe Illustrator 17.0.0, SVG Export Plug-In . SVG Version: 6.00 Build 0)  -->
<!DOCTYPE svg PUBLIC "-//W3C//DTD SVG 1.1//EN" "http://www.w3.org/Graphics/SVG/1.1/DTD/svg11.dtd">
<svg version="1.1" id="Layer_1" xmlns="http://www.w3.org/2000/svg" xmlns:xlink="http://www.w3.org/1999/xlink" x="0px" y="0px"
	 width="612px" height="200px" viewBox="0 0 612 200" style="enable-background:new 0 0 612 200;" xml:space="preserve">
<circle style="fill:#FFDD67;" cx="306" cy="100" r="93.75"/>
<g>
	<path style="fill:#664E27;" d="M260.112,127.966c7.734,4.547,15.203,7.306,22.856,9.138c7.622,1.831,15.312,2.612,23.028,2.625
		c7.722-0.031,15.406-0.812,23.022-2.644c7.653-1.831,15.119-4.584,22.862-9.119c-3.316,8.491-10.675,15.169-18.875,19.441
		c-8.294,4.309-17.694,6.384-27.003,6.378c-9.309-0.012-18.7-2.087-26.991-6.397c-8.203-4.272-15.562-10.944-18.906-19.422"/>
	<circle style="fill:#664E27;" cx="270.069" cy="83.1" r="14.062"/>
	<circle style="fill:#664E27;" cx="341.944" cy="83.1" r="14.062"/>
</g>
</svg>
