<?xml version="1.0" encoding="iso-8859-1"?>
<!-- Generator: Adobe Illustrator 17.0.0, SVG Export Plug-In . SVG Version: 6.00 Build 0)  -->
<!DOCTYPE svg PUBLIC "-//W3C//DTD SVG 1.1//EN" "http://www.w3.org/Graphics/SVG/1.1/DTD/svg11.dtd">
<svg version="1.1" id="Layer_1" xmlns="http://www.w3.org/2000/svg" xmlns:xlink="http://www.w3.org/1999/xlink" x="0px" y="0px"
	 width="612px" height="200px" viewBox="0 0 612 200" style="enable-background:new 0 0 612 200;" xml:space="preserve">
<circle style="fill:#FFDD67;" cx="306" cy="100" r="93.75"/>
<g>
	<path style="fill:#664E27;" d="M339.387,146.875c-5.628-3.316-11.066-5.316-16.631-6.647c-5.547-1.338-11.144-1.903-16.753-1.916
		c-5.622,0.025-11.212,0.591-16.753,1.922c-5.566,1.337-11,3.337-16.631,6.641c2.409-6.184,7.763-11.041,13.737-14.147
		c6.038-3.125,12.872-4.644,19.647-4.637c6.769,0.012,13.606,1.519,19.634,4.65C331.603,135.853,336.962,140.703,339.387,146.875"/>
	<circle style="fill:#664E27;" cx="270.062" cy="83.1" r="14.062"/>
	<circle style="fill:#664E27;" cx="341.938" cy="83.1" r="14.062"/>
</g>
</svg>
