<?xml version="1.0" encoding="iso-8859-1"?>
<!-- Generator: Adobe Illustrator 17.0.0, SVG Export Plug-In . SVG Version: 6.00 Build 0)  -->
<!DOCTYPE svg PUBLIC "-//W3C//DTD SVG 1.1//EN" "http://www.w3.org/Graphics/SVG/1.1/DTD/svg11.dtd">
<svg version="1.1" id="Capa_1" xmlns="http://www.w3.org/2000/svg" xmlns:xlink="http://www.w3.org/1999/xlink" x="0px" y="0px"
	 width="494.923px" height="577.017px" viewBox="0 0 494.923 577.017" style="enable-background:new 0 0 494.923 577.017;"
	 xml:space="preserve">
<g>
	<path style="fill-rule:evenodd;clip-rule:evenodd;fill:#8E181A;stroke:#8E181A;stroke-width:0.5;stroke-miterlimit:22.9256;" d="
		M78.565,474.856c-226.698-249.644,91.63-619.015,269.13-416.375c68.709,89.061,59.235,172.67,15.658,198.038
		c-8.733,0.171-18.003,0.182-27.92,0c1.86-8.062,2.385-15.281,0-20.661c-2.792-0.388-5.752,0.891-8.544,3.183
		c-1.836-3.923-3.703-7.839-5.974-12.117c6.644-50.048-25.101-78.187-47.464-83.201c27.116,13.814,43.802,33.539,44.115,62.542
		c-9.651,4.892-31.287-3.1-58.074-2.792C94.328,197.512,43.957,365.753,78.565,474.856z"/>
	<path style="fill-rule:evenodd;clip-rule:evenodd;fill:#000002;stroke:#000002;stroke-width:0.5;stroke-miterlimit:22.9256;" d="
		M294.419,234.112c0.246,0.011,3.628-2.749,3.602-3.936c0.251-1.173,0.837-3.519,2.597-4.44c4.244-4.439,6.286-3.997,10.47-5.527
		c3.825-1.508,4.802,2.01,7.204,3.015c1.35,1.367,1.526-13.931,0.922-13.569c-3.344-0.882-5.026-0.281-6.518-2.021
		c-10.045,4.663-17.482,12.171-25.06,20.197c0.474,3.183,1.369,4.942,2.681,6.031C291.74,234.281,292.996,233.693,294.419,234.112z"
		/>
	
		<polygon style="fill-rule:evenodd;clip-rule:evenodd;fill:#000002;stroke:#000002;stroke-width:0.5;stroke-miterlimit:22.9256;" points="
		318.378,233.952 324.912,241.574 333.79,238.726 334.125,252.63 325.079,253.468 320.305,259.415 308.159,244.171 304.138,242.747 
		310.84,239.899 	"/>
	<path style="fill-rule:evenodd;clip-rule:evenodd;fill:#000002;stroke:#000002;stroke-width:0.5;stroke-miterlimit:22.9256;" d="
		M306.818,279.855c-4.576-0.924-7.57-0.726-10.805,1.927c-1.751,3.693-1.167,5.155,0.838,8.083c4.355,1.68,7.036,0.948,12.104-0.419
		c28.716-8.77,42.017-18.846,52.142-29.861c-6.534-0.279-13.067-0.559-19.6-0.838C323.954,271.391,310.055,280.621,306.818,279.855z
		"/>
	<path style="fill-rule:evenodd;clip-rule:evenodd;fill:#000002;stroke:#000002;stroke-width:0.5;stroke-miterlimit:22.9256;" d="
		M416.691,138.661c25.909,37.996,53.411,65.756,78.233,78.819c-20.256,32.262-18.386,68.503-0.167,100.765
		c-36.739,16.73-49.599,47.762-48.581,85.101c-56.936,4.899-72.698,47.349-73.71,73.71c-62.823,3.875-100.207,47.616-94.233,99.96
		C134.843,574.212,8.607,312.008,191.119,243.31c5.856-1.911,18.653-3.834,17.925-5.57c0,0-6.659-7.665-4.984-7.162
		c1.675,0.503,10.847,5.864,10.847,5.864c2.792-0.279,6.17-0.224,8.962-0.503c-1.731-2.345-2.373-5.277-4.104-7.622
		c4.244,1.899,6.813,4.048,11.057,5.947c2.01-0.111,4.272,0.489,6.282,0.377c-0.558-1.563-0.069-4.132-0.628-5.696
		c2.904,1.675,3.587,3.936,6.114,5.611c3.842-0.203,8.956-0.857,13.025,0.545c1.787,0.935,1.773,4.509,1.131,7.916
		c-1.773,1.382-4.341,2.262-5.989,1.885c-1.62-1.006-3.323-1.508-5.361-1.592c-2.415-1.321-7.971,1.266-16.418,7.538
		c-0.853,2.792-0.822,5.585,0,8.377c4.556,2.041,7.225,3.097,8.879,3.686c2.222,0.527,4.2,0.423,5.864-0.503
		c0.111-2.792-0.154-5.835,1.005-8.377c1.228,1.899,1.619,4.3,2.848,6.199c0.545,1.312,1.799,0.977,3.35,0.168
		c-0.111-1.061-0.223-2.122-0.335-3.183c1.39,1.184,2.749,2.386,3.35,4.021c1.437,2.16,3.696,2.263,6.031,2.177
		c5.316,6.494,7.639,13.163,5.36,20.103c-6.65-0.814-12.483,0.933-17.347,5.704c-0.878,0.009-1.209,3.165-0.746,10.881
		c6.496-0.275,12.786-0.638,14.898,1.978c2.084,3.595,3.739,14.079,2.82,14.314c-32.646,0.083-61.072-17.991-61.942-45.775
		c-9.691,49.385,97.063,77.468,166.334,24.49C421.856,253.569,427.124,192.525,416.691,138.661z"/>
</g>
</svg>
